<?xml version="1.0" standalone="no"?>
<!DOCTYPE svg PUBLIC "-//W3C//DTD SVG 20010904//EN"
 "http://www.w3.org/TR/2001/REC-SVG-20010904/DTD/svg10.dtd">
<svg version="1.0" xmlns="http://www.w3.org/2000/svg"
 width="212.000000pt" height="219.000000pt" viewBox="0 0 212.000000 219.000000"
 preserveAspectRatio="xMidYMid meet">

<g transform="translate(0.000000,219.000000) scale(0.100000,-0.100000)"
fill="#000000" stroke="none">
<path d="M0 1095 l0 -1095 1060 0 1060 0 0 1095 0 1095 -1060 0 -1060 0 0
-1095z m1595 939 c-231 -29 -428 -53 -437 -53 -17 -1 -18 -39 -19 -643 l0
-643 -117 -295 -118 -295 -339 -7 c-187 -5 -367 -7 -399 -5 l-59 2 416 305
416 305 1 693 0 692 538 -1 537 -1 -420 -54z m255 -354 c0 -13 7 -20 20 -20
13 0 20 -7 20 -20 0 -13 -7 -20 -20 -20 -17 0 -20 -7 -20 -40 0 -33 3 -40 20
-40 11 0 20 -7 20 -15 0 -18 -50 -21 -68 -3 -7 7 -12 31 -12 55 0 32 -4 43
-15 43 -8 0 -15 9 -15 20 0 11 7 20 15 20 8 0 15 9 15 20 0 13 7 20 20 20 13
0 20 -7 20 -20z m-462 -107 c2 -72 0 -85 -18 -103 -31 -31 -125 -26 -113 6 4
11 14 13 35 9 17 -4 35 -2 43 5 23 19 18 27 -14 22 -60 -9 -103 45 -80 100 16
38 35 47 94 45 l50 -2 3 -82z m112 71 c0 -8 -8 -14 -18 -14 -30 0 -42 -21 -42
-72 0 -41 -3 -48 -20 -48 -18 0 -20 7 -20 74 l0 74 50 0 c36 0 50 -4 50 -14z
m115 -9 c14 -13 25 -33 25 -45 0 -18 -6 -20 -56 -20 -50 0 -55 -2 -44 -16 8
-8 25 -14 39 -12 14 1 32 -2 40 -6 19 -12 -4 -26 -44 -26 -63 0 -99 55 -70
109 24 48 72 55 110 16z m145 5 c15 -15 20 -33 20 -74 l0 -54 -55 -1 c-78 -1
-105 29 -64 70 16 16 29 20 50 15 22 -4 29 -2 29 9 0 16 -6 18 -54 19 -33 1
-47 22 -19 29 41 11 74 6 93 -13z m-480 -276 c0 -21 3 -24 20 -19 26 8 70 -19
71 -43 1 -9 4 -4 8 12 10 46 31 45 31 -1 0 -42 14 -65 36 -56 9 3 14 21 14 49
0 32 4 44 15 44 12 0 15 -13 15 -59 l0 -60 -47 2 c-40 2 -50 6 -60 27 -9 18
-13 20 -13 8 0 -23 -31 -38 -79 -38 l-41 0 0 73 c0 41 3 77 7 80 13 14 23 6
23 -19z m250 11 c0 -8 -7 -15 -15 -15 -8 0 -15 7 -15 15 0 8 7 15 15 15 8 0
15 -7 15 -15z m40 -65 c0 -64 -3 -80 -15 -80 -12 0 -15 15 -15 73 0 41 3 77 7
80 17 18 23 0 23 -73z m130 35 l0 -44 25 24 c29 30 49 31 75 5 33 -33 26 -50
-20 -50 -22 0 -40 -4 -40 -10 0 -10 6 -12 42 -14 23 -1 26 -20 4 -24 -31 -6
-67 8 -76 31 -8 21 -9 21 -9 -4 -1 -24 -5 -27 -46 -27 -52 -1 -75 16 -75 58 0
35 38 65 70 55 17 -5 20 -2 20 19 0 16 6 26 15 26 11 0 15 -12 15 -45z m-170
-55 c0 -47 -3 -60 -15 -60 -12 0 -15 13 -15 60 0 47 3 60 15 60 12 0 15 -13
15 -60z m370 45 c0 -7 -9 -15 -20 -18 -16 -4 -20 -14 -20 -46 0 -30 -4 -41
-15 -41 -12 0 -15 13 -15 58 l0 58 35 1 c22 1 35 -4 35 -12z"/>
<path d="M1286 1611 c-32 -35 3 -82 48 -65 17 7 24 74 7 74 -5 0 -16 2 -23 5
-8 3 -22 -3 -32 -14z"/>
<path d="M1553 1623 c-24 -9 -13 -23 18 -23 27 0 30 2 19 15 -13 16 -17 17
-37 8z"/>
<path d="M1687 1563 c-15 -14 -6 -23 23 -23 20 0 30 5 30 15 0 15 -40 21 -53
8z"/>
<path d="M1283 1304 c-7 -18 6 -45 24 -51 6 -2 18 3 27 12 12 12 13 21 6 36
-13 23 -48 25 -57 3z"/>
<path d="M1617 1314 c-24 -24 13 -72 42 -55 20 13 9 56 -14 59 -12 2 -24 0
-28 -4z"/>
<path d="M1740 1310 c0 -5 12 -10 26 -10 14 0 23 4 19 10 -3 6 -15 10 -26 10
-10 0 -19 -4 -19 -10z"/>
</g>
</svg>
